<svg xmlns="http://www.w3.org/2000/svg" version="1.0" width="18" height="18"
     viewBox="0 0 271.000000 272.000000"
     preserveAspectRatio="xMidYMid meet"
>

    <g transform="translate(0.000000,272.000000) scale(0.100000,-0.100000)" fill="green" stroke="none">
        <path d="M659 2127 c-99 -28 -172 -89 -213 -177 -18 -39 -22 -70 -26 -226 -6 -207 -7 -212 -90 -239 -138 -46 -138 -194 0 -240 83 -28 84 -31 90 -244 5 -179 6 -188 33 -238 56 -108 143 -165 263 -171 64 -4 73 -2 101 22 42 35 59 87 43 127 -18 42 -63 76 -112 84 -24 4 -53 16 -65 28 -22 20 -23 27 -23 177 0 171 -11 229 -55 295 l-26 37 25 38 c44 67 56 130 56 296 0 181 5 191 90 205 62 10 95 37 111 89 9 30 8 43 -5 71 -33 68 -104 92 -197 66z m132 -23 c29 -14 59 -65 59 -99 0 -32 -54 -76 -105 -86 -36 -6 -58 -17 -77 -39 -28 -30 -28 -30 -28 -183 0 -172 -11 -228 -59 -294 -29 -40 -29 -42 -11 -58 10 -9 29 -40 41 -68 21 -46 24 -72 29 -235 l5 -184 28 -24 c15 -13 39 -24 53 -24 48 0 94 -27 110 -65 18 -45 10 -78 -28 -110 -62 -53 -224 -16 -293 67 -63 75 -69 98 -75 298 -6 226 -11 236 -123 270 -52 16 -72 50 -68 116 2 31 42 66 97 84 83 26 88 42 94 258 6 206 9 218 77 293 73 80 203 120 274 83z"/>
        <path d="M659 2066 c-85 -30 -139 -84 -167 -165 -7 -20 -12 -96 -12 -187 0 -84 -5 -165 -11 -181 -17 -45 -70 -93 -116 -105 -52 -13 -65 -27 -61 -70 3 -34 26 -52 80 -63 37 -7 85 -58 98 -103 5 -20 10 -107 10 -193 0 -147 1 -158 26 -207 45 -91 133 -145 227 -140 46 3 53 6 65 31 19 40 -4 74 -55 82 -60 10 -102 32 -123 67 -18 29 -20 51 -20 194 0 186 -10 229 -70 297 l-39 44 29 28 c64 61 74 101 80 303 l5 184 37 33 c25 23 50 36 82 40 52 8 71 21 81 52 4 17 -1 29 -19 48 -28 28 -69 32 -127 11z"/>
        <path d="M2023 1776 c-160 -51 -226 -208 -143 -344 29 -48 101 -89 219 -124 119 -37 161 -67 161 -118 0 -65 -45 -100 -127 -100 -62 1 -111 28 -138 76 -22 39 -22 39 -85 39 -73 0 -87 -12 -76 -68 10 -56 64 -118 131 -152 55 -28 66 -30 169 -30 101 0 115 2 162 27 159 84 182 287 46 393 -32 25 -80 46 -161 71 -82 26 -123 44 -143 64 -66 66 -4 148 103 138 60 -6 97 -30 115 -74 14 -34 15 -34 77 -34 94 0 108 25 60 112 -60 111 -230 167 -370 124z"/>
        <path d="M1198 1769 c-21 -12 -26 -107 -6 -127 8 -8 47 -12 110 -12 l98 0 0 -324 c0 -266 2 -326 14 -335 9 -7 40 -11 78 -9 l63 3 3 333 2 332 103 0 c67 0 107 4 115 12 15 15 16 92 2 119 -10 18 -24 19 -288 19 -169 0 -284 -5 -294 -11z"/>
        <path d="M1074 1479 c-3 -6 8 -25 25 -43 17 -18 31 -35 31 -39 0 -3 -69 -8 -152 -9 -145 -3 -153 -4 -153 -23 0 -19 8 -20 153 -23 83 -1 152 -6 152 -9 0 -4 -14 -22 -32 -40 -30 -31 -31 -34 -15 -50 15 -16 21 -13 84 50 l67 68 -64 64 c-64 64 -83 75 -96 54z"/>
    </g>
</svg>